<?xml version="1.0" encoding="UTF-8" standalone="no"?>
<!-- Created with Inkscape (http://www.inkscape.org/) -->

<svg
   width="4096"
   height="2048"
   viewBox="0 0 1083.7333 541.86668"
   version="1.1"
   id="svg3243"
   inkscape:version="1.2.1 (9c6d41e410, 2022-07-14)"
   sodipodi:docname="imagotipo_blanco.svg"
   inkscape:export-filename="imagotipo_blanco.png"
   inkscape:export-xdpi="96"
   inkscape:export-ydpi="96"
   xmlns:inkscape="http://www.inkscape.org/namespaces/inkscape"
   xmlns:sodipodi="http://sodipodi.sourceforge.net/DTD/sodipodi-0.dtd"
   xmlns="http://www.w3.org/2000/svg"
   xmlns:svg="http://www.w3.org/2000/svg">
  <sodipodi:namedview
     id="namedview3245"
     pagecolor="#ffffff"
     bordercolor="#000000"
     borderopacity="0.25"
     inkscape:showpageshadow="2"
     inkscape:pageopacity="0.0"
     inkscape:pagecheckerboard="0"
     inkscape:deskcolor="#d1d1d1"
     inkscape:document-units="px"
     showgrid="false"
     inkscape:zoom="0.074331526"
     inkscape:cx="-1109.8925"
     inkscape:cy="2199.6051"
     inkscape:window-width="1280"
     inkscape:window-height="658"
     inkscape:window-x="-8"
     inkscape:window-y="-8"
     inkscape:window-maximized="1"
     inkscape:current-layer="layer1" />
  <defs
     id="defs3240" />
  <g
     inkscape:label="Capa 1"
     inkscape:groupmode="layer"
     id="layer1">
    <g
       id="g1487"
       transform="matrix(4.7459858,0,0,4.7459858,-140.86498,3029.4382)"
       style="display:inline;stroke-width:0.210704;fill:#ffffff;fill-opacity:1;stroke:#000000;stroke-opacity:1">
      <g
         id="g1947-7-1-1"
         transform="matrix(1.996106,0,0,1.996106,29.312615,-731.15543)"
         style="display:inline;stroke-width:0.210704;fill:#ffffff;fill-opacity:1;stroke:none;stroke-opacity:1"
         inkscape:label="g_isotipo">
        <path
           id="path1972-6-3-8"
           style="fill:#ffffff;fill-opacity:1;stroke:none;stroke-width:0.082508;stroke-linecap:round;stroke-dasharray:none;stroke-opacity:1"
           inkscape:label="nina"
           d="m 27.751852,71.771485 c -0.02636,0.01295 -0.07017,0.350859 -0.07869,0.266205 0.3234,2.585125 1.228351,5.250896 3.512828,8.197274 0.22932,0.285839 0.241051,0.489075 0.203701,0.733638 l -0.25294,1.478743 c -0.0671,0.404283 -0.212293,0.438179 -0.350293,0.505879 -0.659179,0.356467 -1.230177,1.078035 -1.595657,1.692786 -0.23596,0.340272 -0.491011,0.96112 -0.846281,1.143288 -0.355269,0.182169 -0.924755,0.152634 -0.593565,1.464129 0.36191,1.238599 1.271396,0.600575 0.447647,1.984622 l -1.537199,4.144391 c -0.19386,0.532026 0.07565,0.677134 0.350293,0.194708 1.074049,-1.734824 1.746566,-2.685132 2.602695,-4.027702 0.12518,-0.209936 0.252887,-0.485238 0.427637,-0.394137 0.572079,0.332034 1.456891,0.384817 1.85017,0.348945 0.26029,-0.01715 0.262605,0.238209 0.314545,0.414821 1.026039,2.809204 3.38683,0.757994 4.202849,-0.116689 0.309039,-0.257601 0.394446,-0.638991 -0.248443,-0.338827 L 34.7557,90.055326 c -0.435289,0.220595 -0.623692,0.102463 -0.802662,-0.189762 -0.11298,-0.198584 -0.451435,-0.52263 0.233604,-0.544776 1.202979,-0.174321 2.623952,-1.374352 2.394722,-2.509388 -0.0358,-0.189949 -0.08283,-0.253577 -0.303303,-0.196731 -0.594539,0.06498 -0.699617,-0.199052 -0.782877,-0.723295 -0.0842,-0.500379 -0.248627,-1.265606 -0.817277,-2.004183 -0.14375,-0.156687 -0.31625,-0.292378 -0.21854,-0.623919 0.1217,-0.3134 0.317072,-0.666199 0.428761,-0.918677 0.13256,-0.299653 0.215632,-0.301998 0.510602,-0.34782 2.260657,-0.29625 4.842932,-1.419592 6.186571,-2.234415 0.39212,-0.20303 0.43461,-0.683005 -0.233379,-0.369854 -9.424321,4.064305 -12.030477,-3.237641 -13.592425,-7.613602 -0.0023,-0.0064 -0.0049,-0.0088 -0.0076,-0.0074 z m 6.336312,3.235156 c -0.13753,-3.4e-5 -0.303319,0.05647 -0.433932,0.29386 -0.23297,0.447325 -0.707521,0.754258 -0.956001,1.248736 -0.248479,0.494479 -0.222884,1.033972 -0.117364,1.5028 0.7448,2.256417 3.624401,1.912406 4.80878,1.829936 1.731719,-0.282896 2.055609,-1.003755 2.139309,-2.187649 l -0.343998,-0.460913 c 0.23726,2.346576 -2.446687,1.568296 -2.586507,-0.144344 -0.144679,-0.62382 -0.573249,-1.735036 -2.256448,-2.036334 -0.03325,-0.0021 -0.132489,-0.04606 -0.253839,-0.04609 z" />
        <path
           id="path390-0-3-1"
           style="display:inline;fill:#ffffff;fill-opacity:1;stroke:none;stroke-width:0.082508;stroke-linecap:round;stroke-dasharray:none;stroke-opacity:1"
           d="m 27.696546,71.171849 c -0.04614,-4.1e-5 -0.102448,0.04633 -0.151539,0.142995 -2.686498,6.403282 -7.043595,10.074726 -15.611672,6.238508 l -0.131079,0.247769 c 2.298871,1.547787 4.739811,2.474487 7.442277,2.848215 0.582459,0.0618 0.588655,0.324155 0.730265,0.612227 0.66739,1.725371 1.225095,3.15807 1.783395,4.804957 0.20108,0.578629 -0.135721,0.534677 -0.408751,0.564337 -1.147259,-0.07619 -2.158129,-0.447575 -3.151968,-0.856173 -0.332051,-0.123128 -0.310567,0.06828 -0.13625,0.214043 1.241155,1.117191 2.31698,1.505988 3.499338,1.77665 0.49382,0.08785 0.475181,0.228861 0.401781,0.465859 -0.18062,0.516356 -0.3944,0.960848 -0.68957,1.344965 -0.0234,0.03596 -0.01617,0.03698 -0.07397,0.07037 -0.302779,0.195909 -0.617246,0.394622 -0.975336,0.604357 -0.06844,0.03969 -0.108449,0.06684 -0.212919,0.08634 -0.630309,0.158769 -1.260781,0.24716 -1.891091,0.21899 -0.208353,-0.01653 -0.29466,0.284632 -0.029,0.318592 l 1.449514,0.209321 c 0.602849,0.08403 1.208209,0.15313 1.887268,-0.194707 1.239669,-0.646326 2.169736,-0.913856 2.587856,-2.740969 0.11461,-0.569776 0.205005,-0.491362 0.511725,-0.495762 2.063218,-0.02961 1.87543,-1.543823 1.631631,-2.251951 -0.81365,-1.562672 -1.619879,-3.223366 -2.065338,-4.9185 -0.23819,-0.932699 0.199095,-1.628972 0.668885,-2.409336 1.524798,-2.500632 2.959942,-5.398382 3.015942,-6.615557 0.03167,-0.186321 -0.01395,-0.285482 -0.08139,-0.285541 z m -6.124067,1.170043 c -0.004,0.430924 -0.195631,0.474433 -0.60121,0.7179 -0.71198,0.415915 -2.04695,1.170651 -2.15235,2.528724 -0.1054,1.358072 1.218592,2.430902 2.471841,2.41046 1.212519,0.02392 2.428184,-1.533823 2.179554,-2.575715 -0.248629,-1.041891 -0.63419,-1.321675 -0.91508,-1.50932 -0.243629,-0.183538 -0.514722,-0.215896 -0.446973,-0.533759 0.077,-0.424692 0.07399,-0.848542 -0.535782,-1.03829 z"
           transform="translate(-2.9657972e-6)"
           inkscape:label="nino" />
        <path
           id="path2134-33-4"
           style="display:inline;fill:#ffffff;fill-opacity:1;stroke:none;stroke-width:0.0508872;stroke-dasharray:none;stroke-opacity:1"
           d="m 33.548766,56.348205 c -0.01279,0.011 -0.2515,0.236101 -0.531244,0.500445 -1.25113,0.545871 -1.717707,1.772011 -1.841602,2.868192 -0.169709,-0.305827 -0.09512,-0.644534 -0.05887,-0.94751 -0.347126,0.64968 -0.635266,1.413627 -0.93005,2.023337 -0.03165,-0.01167 -0.06368,-0.02222 -0.0955,-0.0334 0.0714,-0.35818 0.552046,-1.751319 0.179247,-0.895147 -0.412729,0.861417 -0.786067,1.580345 -1.112772,2.369798 -0.02222,0.292156 -0.09571,0.597085 -0.160124,0.869484 -0.09925,-0.177766 -0.121271,-0.356149 -0.16578,-0.552798 0.02851,-0.198123 0.05683,-0.396254 0.08525,-0.594378 0.133369,-0.425717 0.258124,-0.86088 0.374684,-1.287808 -0.369508,0.633655 -0.462506,1.360201 -0.744796,2.021277 -0.333044,0.693626 -0.477349,1.483306 -0.360856,2.219409 -0.253319,-0.17386 -0.33157,-0.514046 -0.418884,-0.749424 0.04444,-0.824738 0.157251,-1.589809 0.3382,-2.342075 -0.487337,0.755539 -0.63758,1.700735 -0.531215,2.49555 -0.07207,0.231549 -0.143514,0.463267 -0.215047,0.694973 -4.29e-4,0.561859 -9.76e-4,1.123727 -0.002,1.685597 -0.115727,-0.144502 -0.201423,-0.323971 -0.277164,-0.456811 -0.0119,-0.827756 0.06348,-1.697794 0.135591,-2.457573 -0.429242,2.035009 -1.558713,4.443752 0.222881,5.950417 0.184567,0.214127 0.163468,0.359518 0.176554,0.622073 -0.251873,0.785332 -0.51446,1.640667 -0.710413,2.287564 0.01841,1.95e-4 0.05654,-0.002 0.07589,-0.002 0.0503,-0.244383 0.185398,-0.482398 0.267935,-0.664164 0.119678,-0.307302 0.322381,-0.163805 0.284255,-0.04981 l -0.100083,0.50352 c 0,0 0.06426,0.02783 0.142684,0.02725 l 0.358786,-0.889512 0.358784,-0.888995 c 0.06161,-0.06161 0.12217,-0.124212 0.183265,-0.186318 1.226668,0.07784 1.979677,-0.345132 2.329243,-1.517815 0.399693,-0.394546 0.793743,-0.803937 1.169246,-1.216471 v -0.03497 c -0.579896,0.432153 -1.131736,0.744717 -1.62509,0.712403 0.306509,-0.405026 0.703722,-0.833349 0.987021,-1.165641 0.35686,-0.422096 0.584037,-0.650706 0.649298,-0.652895 0.401109,-0.129441 0.74642,-0.378471 1.034248,-0.634925 -0.554017,0.214621 -1.174166,0.38237 -1.712276,0.396247 0.452308,-0.363796 0.706467,-0.858194 0.993709,-1.349927 0.337263,-0.239315 1.038467,-0.631067 1.29366,-0.956475 -0.190336,0.13521 -0.733626,0.275515 -0.924563,0.304245 0.369774,-0.453597 0.569233,-0.872003 0.805316,-1.346831 0.481732,-0.433668 0.923193,-0.814717 1.350913,-1.320719 -0.247712,0.129149 -0.553842,0.313864 -0.831018,0.450084 0.343122,-0.792667 1.067909,-1.387202 1.562924,-2.002791 -0.506253,0.423559 -1.083602,0.7263 -1.644025,0.771944 0.01414,-0.338864 0.62131,-0.976502 0.817667,-1.522376 0.03681,-1.173221 0.867383,-2.040106 1.579915,-2.795977 -0.573295,0.411539 -1.142099,0.971172 -1.802219,1.529213 -0.581927,0.05645 -1.11902,0.34819 -1.545988,0.622093 -0.119813,-0.462467 -0.142415,-0.967421 -0.170898,-1.367379 0.378875,-0.21296 0.611275,-0.843252 0.755285,-1.042303 z m -1.078825,1.598791 c 0.54342,0.863819 0.137297,2.556253 -0.746996,2.760841 -0.274801,-1.001865 0.182995,-2.389809 0.746996,-2.760841 z m 2.120376,0.507944 c -0.07061,1.80005 -1.093249,1.967792 -1.942332,2.173396 0.103831,-0.55063 0.244412,-1.119745 0.449117,-1.545463 0.338687,-0.414635 0.937762,-0.564016 1.493215,-0.627933 z m -3.673027,1.301872 c 0.845957,0.939277 0.539408,2.136665 -0.198033,2.93234 -0.492711,-0.900586 -0.261628,-2.24391 0.198033,-2.93234 z m 1.59217,1.454114 c 0.473659,-0.101161 0.829825,-0.324223 1.615825,0.04678 -0.582359,0.639095 -1.661566,1.180466 -2.505765,1.231949 0.144367,-0.82799 0.231735,-0.88086 0.88994,-1.278707 z m -2.673653,0.130878 c 0.376803,0.492593 0.48149,1.106678 0.556861,1.679436 -0.02087,0.599428 -0.255974,1.054001 -0.675481,1.412027 -0.27949,-0.449333 -0.2841,-0.799076 -0.362342,-1.279598 0.02247,-0.62972 0.248874,-1.341596 0.480953,-1.811865 z m 3.223365,1.577308 c -0.228815,0.571547 -0.83796,1.074198 -1.31655,1.332984 -0.372749,0.22416 -0.833964,0.217561 -1.210249,0.228375 0.107041,-0.625392 0.545198,-1.175328 1.028455,-1.433567 0.503082,-0.218414 1.088124,-0.138891 1.498344,-0.127803 z m -4.397767,0.285885 c 0.310604,0.303387 0.486392,0.784757 0.649768,1.208767 0.148969,0.6747 0.173659,1.237282 -0.386849,1.644543 -0.345095,-0.464359 -0.480386,-1.076706 -0.481315,-1.676505 0.03858,-0.437407 0.112832,-0.858292 0.218392,-1.176805 z m 3.404583,1.493637 c -0.126815,0.453588 -0.490053,0.811524 -0.860225,1.11944 -0.49355,0.357487 -1.013475,0.331922 -1.589591,0.25452 -0.03564,-0.61971 0.346733,-0.917137 0.825146,-1.216617 0.581245,-0.247956 1.179461,-0.169753 1.62467,-0.157343 z m -3.58214,1.438207 c 0.166701,0.654104 0.02821,1.150769 -0.152403,1.665588 -0.354185,-0.468618 -0.57465,-0.947939 -0.739912,-1.486458 -0.01481,-0.514829 0.04307,-1.049404 0.07694,-1.4731 0.495922,0.391334 0.604047,0.787061 0.815333,1.29397 z m 1.290877,0.556391 c 0.486537,-0.04208 1.089334,0.04482 1.478684,0.127197 -0.214194,0.420376 -0.619767,0.843565 -0.989541,1.181053 -0.465883,0.360786 -0.893094,0.281626 -1.420726,0.10832 -0.02871,-0.694445 0.296705,-1.186004 0.931583,-1.416576 z m -1.786006,3.249038 c -0.271913,-0.480601 -0.677865,-0.964961 -0.844456,-1.484819 -0.174287,-0.54384 -0.102462,-1.123346 -0.07755,-1.630782 0.355893,0.277467 0.743742,0.725119 0.953095,1.188834 0.316129,0.673217 0.09826,1.373129 -0.03115,1.926767 z m 2.558996,-1.200037 c -0.230019,0.452399 -0.634517,0.890098 -1.019786,1.091903 -0.391314,0.199537 -0.836963,0.255798 -1.249917,0.223015 0.02355,-0.50685 0.397193,-0.792061 0.754152,-1.035926 0.545775,-0.180213 0.977528,-0.233024 1.515551,-0.278992 z"
           sodipodi:nodetypes="cccccccccccccccccccccccccccccccccccccccccccccccccccccccccccccccccccccccccccccccccccccccccccccccccccccccccccccccccc"
           inkscape:label="espiga" />
      </g>
      <g
         id="g1469"
         style="stroke-width:0.210704;fill:#ffffff;fill-opacity:1;stroke:#ffffff;stroke-opacity:1">
        <text
           xml:space="preserve"
           style="font-size:29.3504px;font-family:'Franklin Gothic Demi Cond';-inkscape-font-specification:'Franklin Gothic Demi Cond';text-align:center;text-anchor:middle;display:inline;fill:#ffffff;fill-opacity:1;stroke:#ffffff;stroke-width:0.0387498;stroke-linecap:round;stroke-dasharray:none;stroke-opacity:1"
           x="175.2271"
           y="-561.49719"
           id="text8231"><tspan
             sodipodi:role="line"
             id="tspan8229"
             style="fill:#ffffff;fill-opacity:1;stroke:#ffffff;stroke-width:0.0387498;stroke-opacity:1"
             x="175.2271"
             y="-561.49719">FundaJireh</tspan></text>
        <text
           xml:space="preserve"
           style="font-size:14.4661px;font-family:'Franklin Gothic Demi Cond';-inkscape-font-specification:'Franklin Gothic Demi Cond';text-align:center;text-anchor:middle;display:inline;fill:#ffffff;fill-opacity:1;stroke:#ffffff;stroke-width:0.128476;stroke-linecap:round;stroke-dasharray:none;stroke-opacity:1"
           x="175.20293"
           y="-544.27368"
           id="text8491"><tspan
             sodipodi:role="line"
             id="tspan8489"
             style="font-style:normal;font-variant:normal;font-weight:normal;font-stretch:normal;font-size:14.4661px;font-family:'Century Gothic';-inkscape-font-specification:'Century Gothic';fill:#ffffff;fill-opacity:1;stroke:#ffffff;stroke-width:0.128476;stroke-dasharray:none;stroke-opacity:1"
             x="175.20293"
             y="-544.27368">Love our Kids</tspan></text>
        <g
           id="g15618"
           transform="matrix(4.7938909,0,0,4.7938909,-198.51059,-692.69296)"
           style="display:inline;fill:#ffffff;fill-opacity:1;stroke:#ffffff;stroke-width:0.210704;stroke-opacity:1">
          <path
             style="fill:#ffffff;fill-opacity:1;stroke:#ffffff;stroke-width:0.000335822;stroke-linecap:round;stroke-dasharray:none;stroke-opacity:1"
             d="m 78.031823,27.958482 c 0.344483,-0.517749 0.85523,-0.05622 0.520592,0.43753 l -0.53034,0.575736 -0.524457,-0.561777 c -0.366066,-0.464794 0.214957,-0.977075 0.534205,-0.451489 z"
             id="path15195"
             sodipodi:nodetypes="ccccc" />
          <path
             style="fill:#ffffff;fill-opacity:1;stroke:#ffffff;stroke-width:0.0341638;stroke-linecap:round;stroke-dasharray:none;stroke-opacity:1"
             d="M 72.374291,28.203617 H 83.667773"
             id="path15268" />
        </g>
      </g>
    </g>
    <rect
       style="fill:none;stroke:none;stroke-width:0.0997479;stroke-linecap:round;stroke-dashoffset:4.09999"
       id="rect16640"
       width="1083.7333"
       height="541.86664"
       x="0"
       y="3.5595036" />
  </g>
</svg>
